<svg width="24" height="24" viewBox="0 0 24 24" fill="none" xmlns="http://www.w3.org/2000/svg">
<path fill-rule="evenodd" clip-rule="evenodd" d="M5.59739 19.0707C5.2765 19.5436 4.70228 19.797 3.87472 19.8307V20.6667H10.3347V19.5521L8.20672 19.6534C8.25739 19.3325 8.28272 18.7499 8.28272 17.9054L8.26661 8.12592L14.1736 19.6066C13.8828 19.7388 13.5258 19.8135 13.1026 19.8307V20.6667H19.5626V19.5521L17.4346 19.6534C17.4853 19.3325 17.5106 18.7499 17.5106 17.9054L17.4853 2.52808H16.6239L11.6839 6.20141L12.1906 6.93608L15.2306 4.98541H15.2813L15.3066 16.9427C15.3066 17.4827 15.2543 17.9456 15.1497 18.3314L8.26137 4.94333L8.25739 2.52808H7.39606L2.45605 6.20141L2.96272 6.93608L6.00272 4.98541H6.05339L6.07872 16.9427C6.07872 17.8885 5.91828 18.5979 5.59739 19.0707Z" fill="url(#paint0_linear_1233_1559)"/>
<defs>
<linearGradient id="paint0_linear_1233_1559" x1="11.0093" y1="2.52808" x2="11.0093" y2="20.6667" gradientUnits="userSpaceOnUse">
<stop stop-color="#FFB422"/>
<stop offset="1" stop-color="#FF6666"/>
</linearGradient>
</defs>
</svg>
